<svg width="488" height="174" viewBox="0 0 488 174" fill="none" xmlns="http://www.w3.org/2000/svg">
<path d="M12.0584 163V160.83H17.0494V144.214L13.1124 146.694L12.0274 144.803L17.7624 141.145H19.5914V160.83H24.2724V163H12.0584ZM34.8932 163.279C33.5499 163.279 32.3719 162.959 31.3592 162.318C30.3672 161.677 29.5922 160.778 29.0342 159.621C28.4969 158.443 28.2282 157.058 28.2282 155.467C28.2282 153.855 28.4969 152.47 29.0342 151.313C29.5922 150.135 30.3672 149.236 31.3592 148.616C32.3719 147.975 33.5499 147.655 34.8932 147.655C36.0712 147.655 37.1046 147.913 37.9932 148.43C38.9026 148.947 39.5742 149.66 40.0082 150.569V141.145H42.5192V163H40.0702V160.241C39.6362 161.192 38.9646 161.936 38.0552 162.473C37.1459 163.01 36.0919 163.279 34.8932 163.279ZM35.4202 161.264C36.8256 161.264 37.9519 160.768 38.7992 159.776C39.6466 158.763 40.0702 157.327 40.0702 155.467C40.0702 153.586 39.6466 152.15 38.7992 151.158C37.9519 150.166 36.8256 149.67 35.4202 149.67C33.9942 149.67 32.8576 150.166 32.0102 151.158C31.1836 152.15 30.7702 153.586 30.7702 155.467C30.7702 157.327 31.1836 158.763 32.0102 159.776C32.8576 160.768 33.9942 161.264 35.4202 161.264ZM80.5671 163V160.83H85.5581V144.214L81.6211 146.694L80.5361 144.803L86.2711 141.145H88.1001V160.83H92.7811V163H80.5671ZM101.666 163L96.055 147.934H98.69L102.937 160.055L107.339 147.934H109.478L113.818 160.086L118.127 147.934H120.638L114.996 163H112.609L108.362 151.313L104.084 163H101.666ZM157.068 163V160.83H162.059V144.214L158.122 146.694L157.037 144.803L162.772 141.145H164.601V160.83H169.282V163H157.068ZM174.23 163V147.934H176.679V150.476C177.134 149.567 177.764 148.874 178.57 148.399C179.376 147.903 180.316 147.655 181.391 147.655C183.747 147.655 185.256 148.678 185.917 150.724C186.372 149.773 187.043 149.029 187.932 148.492C188.821 147.934 189.844 147.655 191.001 147.655C194.349 147.655 196.023 149.639 196.023 153.607V163H193.512V153.731C193.512 152.346 193.264 151.334 192.768 150.693C192.293 150.032 191.497 149.701 190.381 149.701C189.162 149.701 188.19 150.135 187.467 151.003C186.744 151.871 186.382 153.028 186.382 154.475V163H183.871V153.731C183.871 152.346 183.623 151.334 183.127 150.693C182.652 150.032 181.856 149.701 180.74 149.701C179.5 149.701 178.518 150.135 177.795 151.003C177.092 151.871 176.741 153.028 176.741 154.475V163H174.23ZM234.053 163V160.83H239.044V144.214L235.107 146.694L234.022 144.803L239.757 141.145H241.586V160.83H246.267V163H234.053ZM252.889 168.58L255.462 162.752L249.107 147.934H251.835L256.826 160.148L261.848 147.934H264.483L255.524 168.58H252.889ZM305.621 163.279C304.174 163.279 302.8 163.062 301.498 162.628C300.196 162.173 299.101 161.522 298.212 160.675L299.142 158.66C300.155 159.487 301.178 160.086 302.211 160.458C303.244 160.83 304.36 161.016 305.559 161.016C307.13 161.016 308.328 160.675 309.155 159.993C310.002 159.29 310.426 158.267 310.426 156.924C310.426 155.643 310.002 154.671 309.155 154.01C308.308 153.349 307.078 153.018 305.466 153.018H302.242V150.817H305.249C306.654 150.817 307.76 150.455 308.566 149.732C309.393 148.988 309.806 147.975 309.806 146.694C309.806 145.557 309.424 144.679 308.659 144.059C307.915 143.439 306.851 143.129 305.466 143.129C303.193 143.129 301.209 143.956 299.514 145.609L298.584 143.625C299.39 142.757 300.413 142.085 301.653 141.61C302.914 141.114 304.236 140.866 305.621 140.866C307.729 140.866 309.372 141.362 310.55 142.354C311.749 143.346 312.348 144.72 312.348 146.477C312.348 147.696 312.038 148.771 311.418 149.701C310.798 150.61 309.94 151.272 308.845 151.685C310.147 152.036 311.16 152.687 311.883 153.638C312.606 154.568 312.968 155.725 312.968 157.11C312.968 158.991 312.307 160.489 310.984 161.605C309.682 162.721 307.894 163.279 305.621 163.279ZM319.249 168.58L321.822 162.752L315.467 147.934H318.195L323.186 160.148L328.208 147.934H330.843L321.884 168.58H319.249ZM374.615 163V158.319H364.54V156.397L375.049 141.145H377.188V156.149H380.443V158.319H377.188V163H374.615ZM374.615 156.149V145.33L367.175 156.149H374.615ZM385.608 168.58L388.181 162.752L381.826 147.934H384.554L389.545 160.148L394.567 147.934H397.202L388.243 168.58H385.608ZM439.053 163.279C437.647 163.279 436.304 163.052 435.023 162.597C433.741 162.142 432.656 161.502 431.768 160.675L432.729 158.66C434.651 160.231 436.748 161.016 439.022 161.016C440.53 161.016 441.719 160.592 442.587 159.745C443.455 158.898 443.889 157.782 443.889 156.397C443.889 154.971 443.475 153.803 442.649 152.894C441.822 151.985 440.685 151.53 439.239 151.53C437.151 151.53 435.508 152.398 434.31 154.134H432.45V141.145H445.129V143.315H434.961V151.127C436.159 149.928 437.74 149.329 439.704 149.329C441.068 149.329 442.256 149.618 443.269 150.197C444.281 150.776 445.056 151.592 445.594 152.646C446.152 153.679 446.431 154.888 446.431 156.273C446.431 157.637 446.131 158.846 445.532 159.9C444.932 160.954 444.075 161.781 442.959 162.38C441.863 162.979 440.561 163.279 439.053 163.279ZM451.967 168.58L454.54 162.752L448.185 147.934H450.913L455.904 160.148L460.926 147.934H463.561L454.602 168.58H451.967Z" fill="white"/>
<path d="M1 48.0571L64.7578 4.73239C68.7823 1.99763 74.1911 2.55663 77.5713 6.05667L111.45 41.1371C115.182 45.0015 121.301 45.2266 125.307 41.6468L162.703 8.22944C167.445 3.99149 174.887 5.19928 178.045 10.7196L214.526 74.4752C217.385 79.4712 223.86 81.0285 228.678 77.8786L276.141 46.8458C279.114 44.9019 282.895 44.6811 286.075 46.2658L307.752 57.0711C311.18 58.7796 315.282 58.3804 318.316 56.0432L362.666 21.8779C365.439 19.7413 369.128 19.2108 372.391 20.4792L413.78 36.5668C416.006 37.4317 418.467 37.472 420.719 36.6804L446.48 27.6259C448.533 26.9046 450.764 26.8722 452.837 27.5337L476.901 35.2143" stroke="#3658D8"/>
<path d="M64.7578 4.73239L1 48.0571V116H487.214V26.5143H451.349C450.22 26.5143 449.099 26.7056 448.033 27.0801L420.719 36.6804C418.467 37.472 416.006 37.4317 413.78 36.5668L372.391 20.4792C369.128 19.2108 365.439 19.7413 362.666 21.8779L318.316 56.0432C315.282 58.3804 311.18 58.7796 307.752 57.0711L286.075 46.2658C282.895 44.6811 279.114 44.9019 276.141 46.8458L228.678 77.8786C223.861 81.0285 217.385 79.4712 214.526 74.4752L178.045 10.7196C174.887 5.19928 167.445 3.99149 162.703 8.22944L125.307 41.6469C121.301 45.2266 115.182 45.0015 111.45 41.1371L77.5713 6.05667C74.1911 2.55663 68.7823 1.99763 64.7578 4.73239Z" fill="url(#paint0_linear)"/>
<defs>
<linearGradient id="paint0_linear" x1="244.107" y1="0" x2="244.107" y2="116" gradientUnits="userSpaceOnUse">
<stop stop-color="#3658D8"/>
<stop offset="1" stop-color="#1C2754"/>
</linearGradient>
</defs>
</svg>
