<svg width="450" height="453" viewBox="0 0 450 453" fill="none" xmlns="http://www.w3.org/2000/svg">
<path d="M390.655 74.9246C275.945 -52.5356 66.4612 -10.8451 9.19116 150.548C82.7696 118.445 240.408 97.0559 390.655 74.9246Z" fill="#FF9151"/>
<path d="M139.523 341.202C143.191 349.047 146.666 374.181 146.666 374.181C146.666 374.181 209.411 178.864 221.4 140.571C159.862 146.142 25.1849 168.64 7.49173 208.313C-3.05354 231.93 39.1871 250.788 50.5898 271.699C58.9343 287.288 47.9076 296.742 31.3882 286.522C20.2607 279.645 9.49533 273.726 0 267.394C12.9248 337.607 58.2282 396.427 119.886 427.866C120.51 423.872 129.762 320.244 139.523 341.202Z" fill="#FF9151"/>
<path d="M263.14 136.436C234.479 199.51 185.852 366.52 168.209 445.861C361.908 493.544 514.86 286.742 420.347 116.56C367.249 123.96 281.745 134.423 263.14 136.436Z" fill="#FF6156"/>
</svg>
